HIERARCHY
ROOT Hips
{
	OFFSET -0.001795 -0.223333 0.028219
	CHANNELS 6 Xposition Yposition Zposition Zrotation Yrotation Xrotation 
	JOINT LeftUpLeg
	{
		OFFSET 0.069520 -0.091406 -0.006815
		CHANNELS 3 Zrotation Yrotation Xrotation
		JOINT LeftLeg
		{
			OFFSET 0.034277 -0.375199 -0.004496
			CHANNELS 3 Zrotation Yrotation Xrotation
			JOINT LeftFoot
			{
				OFFSET -0.013596 -0.397961 -0.043693
				CHANNELS 3 Zrotation Yrotation Xrotation
				JOINT LeftToe
				{
					OFFSET 0.026358 -0.055791 0.119288
					CHANNELS 3 Zrotation Yrotation Xrotation
					End Site
					{
						OFFSET 0.000000 0.000000 0.000000
					}
				}
			}
		}
	}
	JOINT RightUpLeg
	{
		OFFSET -0.067670 -0.090522 -0.004320
		CHANNELS 3 Zrotation Yrotation Xrotation
		JOINT RightLeg
		{
			OFFSET -0.038290 -0.382569 -0.008850
			CHANNELS 3 Zrotation Yrotation Xrotation
			JOINT RightFoot
			{
				OFFSET 0.015774 -0.398415 -0.042312
				CHANNELS 3 Zrotation Yrotation Xrotation
				JOINT RightToe
				{
					OFFSET -0.025372 -0.048144 0.123348
					CHANNELS 3 Zrotation Yrotation Xrotation
					End Site
					{
						OFFSET 0.000000 0.000000 0.000000
					}
				}
			}
		}
	}
	JOINT Spine
	{
		OFFSET -0.002533 0.108963 -0.026696
		CHANNELS 3 Zrotation Yrotation Xrotation
		JOINT Spine1
		{
			OFFSET 0.005487 0.135180 0.001092
			CHANNELS 3 Zrotation Yrotation Xrotation
			JOINT Spine2
			{
				OFFSET 0.001457 0.052922 0.025425
				CHANNELS 3 Zrotation Yrotation Xrotation
				JOINT Neck
				{
					OFFSET -0.002778 0.213870 -0.042857
					CHANNELS 3 Zrotation Yrotation Xrotation
					JOINT Head
					{
						OFFSET 0.005152 0.064970 0.051349
						CHANNELS 3 Zrotation Yrotation Xrotation
						End Site
						{
							OFFSET 0.000000 0.000000 0.000000
						}
					}
				}
				JOINT LeftShoulder
				{
					OFFSET 0.078845 0.121749 -0.034090
					CHANNELS 3 Zrotation Yrotation Xrotation
					JOINT LeftArm
					{
						OFFSET 0.090977 0.030469 -0.008868
						CHANNELS 3 Zrotation Yrotation Xrotation
						JOINT LeftForeArm
						{
							OFFSET 0.259612 -0.012772 -0.027456
							CHANNELS 3 Zrotation Yrotation Xrotation
							JOINT LeftHand
							{
								OFFSET 0.249234 0.008986 -0.001171
								CHANNELS 3 Zrotation Yrotation Xrotation
								End Site
								{
									OFFSET 0.000000 0.000000 0.000000
								}
							}
						}
					}
				}
				JOINT RightShoulder
				{
					OFFSET -0.081759 0.118833 -0.038615
					CHANNELS 3 Zrotation Yrotation Xrotation
					JOINT RightArm
					{
						OFFSET -0.096012 0.032551 -0.009143
						CHANNELS 3 Zrotation Yrotation Xrotation
						JOINT RightForeArm
						{
							OFFSET -0.253742 -0.013329 -0.021401
							CHANNELS 3 Zrotation Yrotation Xrotation
							JOINT RightHand
							{
								OFFSET -0.255298 0.007772 -0.005559
								CHANNELS 3 Zrotation Yrotation Xrotation
								End Site
								{
									OFFSET 0.000000 0.000000 0.000000
								}
							}
						}
					}
				}
			}
		}
	}
}
MOTION
Frames: 15
Frame Time: 0.050000
0.000000 0.939879 0.000000 -0.467334 -3.373124 8.602636 6.937043 -0.347972 -5.418322 -0.126739 0.192849 -5.329860 2.049088 6.974892 9.563139 0.000000 0.000000 0.000000 -3.860040 0.638603 -6.612965 -1.759530 -0.123515 -5.407386 0.334698 -4.172211 10.381019 0.000000 0.000000 0.000000 5.447296 0.437730 -6.940955 -2.473235 1.121872 -4.906595 -3.366043 4.947447 4.219878 6.580512 -3.108606 -11.904288 0.000000 0.000000 0.000000 -16.166787 0.785364 -2.710585 -55.309758 -6.233854 -3.574874 -7.947449 -14.093462 1.405195 0.000000 0.000000 0.000000 13.322763 -7.474010 -4.253019 62.258656 3.573769 -3.818177 9.318342 18.792530 2.113331 0.000000 0.000000 0.000000 
0.000145 0.939192 0.000509 -0.648218 -4.399271 9.565500 6.943782 -0.342254 -5.206916 0.140135 0.219362 -6.439731 2.580615 7.850997 9.868745 0.000000 0.000000 0.000000 -3.753255 0.745834 -7.906886 -1.990786 -0.082612 -4.800376 1.146842 -3.059850 11.235407 0.000000 0.000000 0.000000 6.600620 0.516392 -7.478452 -3.274342 1.434746 -5.286185 -3.988589 5.979456 3.375441 7.257192 -3.465537 -12.010942 0.000000 0.000000 0.000000 -17.307571 1.082441 -3.196371 -54.300875 -6.325766 -3.326610 -7.823212 -13.371930 1.300589 0.000000 0.000000 0.000000 12.928967 -8.876002 -4.816543 63.278998 2.303897 -4.376086 9.895169 18.359289 2.153914 0.000000 0.000000 0.000000 
0.000207 0.939054 0.000769 -0.205261 -3.968036 9.369167 6.424093 -0.372263 -5.676619 0.333482 0.145510 -4.894621 2.249028 7.029294 8.537368 0.000000 0.000000 0.000000 -3.714307 0.731651 -7.780080 -2.686752 -0.044368 -4.804334 0.362027 -4.415094 10.923489 0.000000 0.000000 0.000000 6.231140 0.461352 -7.063990 -3.034968 1.328965 -6.132938 -4.356143 5.413452 3.352208 6.810294 -3.441217 -10.585206 0.000000 0.000000 0.000000 -16.668315 0.743757 -2.859446 -54.592516 -5.696900 -3.665246 -7.496991 -12.914221 1.226974 0.000000 0.000000 0.000000 14.051988 -7.929635 -4.540983 62.178593 1.737736 -4.684977 9.601493 18.344574 2.097306 0.000000 0.000000 0.000000 
0.000217 0.938904 0.001035 -0.164521 -3.861904 9.947129 6.886326 -0.380540 -5.968806 -0.339792 0.215932 -5.578012 2.034936 6.846540 9.349315 0.000000 0.000000 0.000000 -3.885358 0.786488 -8.518654 -2.703314 -0.058802 -5.049544 0.254319 -4.915669 11.735234 0.000000 0.000000 0.000000 6.335415 0.482781 -7.378786 -3.341581 1.460700 -5.674100 -4.216618 4.927006 1.819072 6.993151 -3.774013 -9.331976 0.000000 0.000000 0.000000 -16.579719 1.432020 -3.143335 -55.061665 -6.128798 -3.356299 -6.543604 -11.845561 1.028961 0.000000 0.000000 0.000000 12.780597 -8.202125 -4.585892 62.411532 0.984601 -4.909423 10.905344 18.269664 2.247388 0.000000 0.000000 0.000000 
0.000141 0.939221 0.001233 0.099675 -3.351248 9.893679 6.431324 -0.405871 -6.159031 -0.081026 0.191822 -5.382706 1.900411 6.628041 9.200767 0.000000 0.000000 0.000000 -3.898838 0.774402 -8.419560 -3.215754 -0.049808 -5.350099 -0.011631 -5.380601 11.806145 0.000000 0.000000 0.000000 5.954266 0.461973 -7.324252 -3.027947 1.339992 -5.601451 -4.424661 4.608237 1.714253 6.780680 -3.565403 -9.672074 0.000000 0.000000 0.000000 -16.363582 1.178294 -2.989101 -55.108136 -6.588770 -3.143519 -6.977294 -11.489537 1.039767 0.000000 0.000000 0.000000 12.521965 -8.551821 -4.714740 62.461689 0.857611 -4.957851 10.793274 17.623936 2.139419 0.000000 0.000000 0.000000 
0.000052 0.939606 0.001458 0.234931 -3.145669 10.153163 6.415369 -0.417763 -6.288272 -0.270919 0.214084 -5.679460 1.961542 6.836265 9.546311 0.000000 0.000000 0.000000 -4.020970 0.781809 -8.546400 -3.465441 -0.067197 -5.798628 -0.067979 -5.739869 12.620099 0.000000 0.000000 0.000000 5.738150 0.470611 -7.543849 -2.944769 1.307105 -5.669877 -4.443339 4.540810 1.462260 6.964490 -3.742817 -9.311649 0.000000 0.000000 0.000000 -16.549739 1.468331 -3.183073 -55.063708 -6.748927 -3.035121 -6.603215 -11.084718 0.966038 0.000000 0.000000 0.000000 12.171735 -8.534549 -4.652830 62.660707 0.637767 -5.042212 10.664021 17.261875 2.069119 0.000000 0.000000 0.000000 
-0.000064 0.939855 0.001646 0.314166 -2.857487 10.144261 6.178285 -0.431148 -6.367113 -0.193521 0.208827 -5.676051 1.961113 6.939308 9.854173 0.000000 0.000000 0.000000 -3.947670 0.773923 -8.448158 -3.719122 -0.066221 -5.968787 0.144051 -5.352829 12.778807 0.000000 0.000000 0.000000 5.511992 0.455381 -7.482069 -2.918368 1.300719 -5.612988 -4.394620 4.116557 1.413532 6.840752 -3.610542 -9.666350 0.000000 0.000000 0.000000 -16.404592 1.645072 -3.191599 -55.205013 -6.772913 -3.034324 -6.350838 -11.024263 0.941192 0.000000 0.000000 0.000000 11.965836 -8.387797 -4.588729 62.959931 0.547599 -5.122333 10.203750 16.977935 1.958466 0.000000 0.000000 0.000000 
-0.000156 0.940261 0.001780 0.280360 -2.631437 10.303686 6.140088 -0.450736 -6.749933 -0.095499 0.191363 -5.361308 1.929634 6.843248 9.586100 0.000000 0.000000 0.000000 -3.885120 0.780547 -8.530903 -3.876233 -0.063416 -6.034065 0.086253 -5.446704 12.834158 0.000000 0.000000 0.000000 5.491359 0.445615 -7.438821 -2.867397 1.281049 -5.665742 -4.542908 4.213537 1.196822 7.170230 -3.869140 -9.335167 0.000000 0.000000 0.000000 -16.354072 1.545567 -3.194337 -54.974631 -6.873645 -2.945652 -6.104922 -10.975649 0.909210 0.000000 0.000000 0.000000 12.073507 -8.683520 -4.713895 63.028658 0.418751 -5.148578 10.048218 16.584525 1.892204 0.000000 0.000000 0.000000 
-0.000263 0.940675 0.001851 0.272823 -2.541552 10.340226 6.088249 -0.462135 -6.976735 -0.079502 0.184095 -5.187601 1.961970 6.906958 9.580459 0.000000 0.000000 0.000000 -3.885485 0.775708 -8.463100 -3.906608 -0.084454 -6.349142 0.307220 -5.060173 12.959664 0.000000 0.000000 0.000000 5.350071 0.434256 -7.371927 -2.806016 1.256825 -5.706627 -4.413905 4.079647 1.173373 7.123276 -3.839746 -9.350832 0.000000 0.000000 0.000000 -16.205561 1.688340 -3.216184 -55.014048 -7.079457 -2.856130 -5.737029 -10.767585 0.860462 0.000000 0.000000 0.000000 12.113824 -8.478247 -4.636935 62.934322 0.506668 -5.103150 9.627598 16.392669 1.809237 0.000000 0.000000 0.000000 
-0.000360 0.941048 0.001864 0.273775 -2.376505 10.271135 6.133703 -0.465971 -7.094613 -0.128133 0.179726 -4.976311 1.996583 6.989369 9.605807 0.000000 0.000000 0.000000 -3.891750 0.765554 -8.345664 -3.983721 -0.099453 -6.611609 0.414765 -4.907591 13.173085 0.000000 0.000000 0.000000 5.361609 0.420016 -7.221220 -2.825428 1.266479 -5.746021 -4.423184 4.118330 1.131036 7.390768 -4.032050 -9.241777 0.000000 0.000000 0.000000 -16.002639 1.557248 -3.144405 -54.955384 -7.406678 -2.701097 -5.588110 -10.503185 0.824443 0.000000 0.000000 0.000000 12.200459 -8.460172 -4.624616 62.849177 0.624936 -5.022988 9.344897 16.102773 1.739944 0.000000 0.000000 0.000000 
-0.000420 0.941335 0.001824 0.233670 -2.416026 10.211732 6.207051 -0.461571 -7.075628 0.000130 0.165290 -4.810451 1.933002 6.871047 9.586981 0.000000 0.000000 0.000000 -3.971134 0.762120 -8.317198 -3.910952 -0.109770 -6.713861 0.525727 -4.755338 13.315432 0.000000 0.000000 0.000000 5.462011 0.409838 -7.073692 -2.847669 1.275172 -5.742679 -4.418750 4.278856 1.216811 7.499618 -4.064521 -9.435361 0.000000 0.000000 0.000000 -15.921628 1.370070 -3.063828 -54.898016 -7.631867 -2.601614 -5.498374 -10.558562 0.819541 0.000000 0.000000 0.000000 12.262468 -8.411510 -4.591543 62.923688 1.010272 -4.825072 9.138873 15.934317 1.697829 0.000000 0.000000 0.000000 
-0.000412 0.941447 0.001721 0.207051 -2.221527 10.252558 6.317267 -0.465721 -7.204453 -0.069058 0.165226 -4.678467 1.822076 6.665588 9.456423 0.000000 0.000000 0.000000 -3.934195 0.759726 -8.288991 -3.979350 -0.108818 -6.745332 0.538517 -4.688401 13.279527 0.000000 0.000000 0.000000 5.574621 0.411979 -7.100219 -2.891045 1.297381 -5.474004 -4.434408 4.200310 1.000153 7.602200 -4.124733 -9.438035 0.000000 0.000000 0.000000 -15.812628 1.194250 -2.972874 -54.936582 -7.835368 -2.489026 -5.245707 -10.616954 0.800413 0.000000 0.000000 0.000000 12.062917 -8.194238 -4.459560 63.199119 1.169036 -4.727244 8.989978 15.932854 1.677971 0.000000 0.000000 0.000000 
-0.000349 0.941698 0.001576 0.184229 -2.124439 10.229410 6.368730 -0.463327 -7.157623 -0.077927 0.165017 -4.656816 1.725156 6.505338 9.449273 0.000000 0.000000 0.000000 -3.856084 0.761327 -8.308926 -4.122323 -0.097287 -6.670712 0.597307 -4.551893 13.242289 0.000000 0.000000 0.000000 5.644427 0.399618 -6.958170 -2.821322 1.270089 -5.436401 -4.449875 4.360589 0.858679 7.870577 -4.308821 -9.336674 0.000000 0.000000 0.000000 -15.872281 0.888414 -2.882886 -54.803339 -7.979880 -2.394887 -5.453989 -10.811751 0.830390 0.000000 0.000000 0.000000 12.158378 -8.383451 -4.536598 63.177591 1.313084 -4.617239 9.142733 16.190482 1.734800 0.000000 0.000000 0.000000 
-0.000287 0.941890 0.001391 0.126033 -2.134655 10.227525 6.475988 -0.462593 -7.252627 -0.120740 0.165024 -4.571931 1.719134 6.469259 9.355346 0.000000 0.000000 0.000000 -3.806311 0.770782 -8.432354 -4.260941 -0.081890 -6.538595 0.705072 -4.329921 13.177548 0.000000 0.000000 0.000000 5.679815 0.395687 -6.905560 -2.702562 1.221675 -5.382575 -4.453258 4.460723 0.862858 8.010413 -4.415439 -9.248566 0.000000 0.000000 0.000000 -15.798509 0.752241 -2.823131 -54.838559 -8.028691 -2.375324 -5.567675 -11.094543 0.861213 0.000000 0.000000 0.000000 12.097454 -8.195578 -4.427363 63.243884 1.502252 -4.510782 9.019352 16.559457 1.767765 0.000000 0.000000 0.000000 
-0.000296 0.942250 0.001151 0.169548 -2.118910 10.267087 6.471456 -0.465790 -7.317634 -0.171057 0.170134 -4.619585 1.665924 6.406956 9.465386 0.000000 0.000000 0.000000 -3.771397 0.778879 -8.537047 -4.431609 -0.073608 -6.522142 0.815131 -4.149263 13.254030 0.000000 0.000000 0.000000 5.664194 0.386985 -6.827776 -2.671716 1.209148 -5.373659 -4.480275 4.552451 0.764900 8.084633 -4.483230 -9.112506 0.000000 0.000000 0.000000 -15.774641 0.734872 -2.835324 -54.802575 -7.811458 -2.461784 -5.790427 -11.477152 0.909640 0.000000 0.000000 0.000000 12.115031 -8.128109 -4.385608 63.261632 1.606365 -4.435265 9.283391 16.770072 1.830944 0.000000 0.000000 0.000000 
